<mxfile host="app.diagrams.net" modified="2020-12-20T05:49:05.752Z" agent="5.0 (Windows NT 10.0; Win64; x64) AppleWebKit/537.36 (KHTML, like Gecko) Chrome/86.0.4240.75 Safari/537.36" etag="PJCZzBFnEYvITGLFf0HX" version="14.1.1" type="github">
  <diagram id="re15Rb0JpsQiYsEudaRB" name="Page-1">
    <mxGraphModel dx="2146" dy="829" grid="1" gridSize="10" guides="1" tooltips="1" connect="1" arrows="1" fold="1" page="1" pageScale="1" pageWidth="827" pageHeight="1169" math="0" shadow="0">
      <root>
        <mxCell id="0" />
        <mxCell id="1" parent="0" />
        <mxCell id="iDL0mzzt14MPATJzExOn-60" value="" style="rounded=0;whiteSpace=wrap;html=1;shadow=0;glass=0;sketch=0;strokeWidth=3;fillColor=none;gradientColor=none;dashed=1;strokeColor=#7EA6E0;" vertex="1" parent="1">
          <mxGeometry x="32.5" y="687" width="877.5" height="400" as="geometry" />
        </mxCell>
        <mxCell id="iDL0mzzt14MPATJzExOn-75" style="edgeStyle=orthogonalEdgeStyle;curved=1;rounded=0;orthogonalLoop=1;jettySize=auto;html=1;exitX=0.5;exitY=0;exitDx=0;exitDy=0;entryX=0;entryY=0.5;entryDx=0;entryDy=0;strokeWidth=1;" edge="1" parent="1" source="iDL0mzzt14MPATJzExOn-73" target="iDL0mzzt14MPATJzExOn-74">
          <mxGeometry relative="1" as="geometry" />
        </mxCell>
        <mxCell id="iDL0mzzt14MPATJzExOn-73" value="&lt;b style=&quot;font-family: &amp;#34;comic sans ms&amp;#34; ; font-size: 16px&quot;&gt;进程 P&lt;/b&gt;" style="ellipse;whiteSpace=wrap;html=1;rounded=0;shadow=0;glass=0;sketch=1;strokeWidth=1;fillColor=#ffcccc;strokeColor=#36393d;" vertex="1" parent="1">
          <mxGeometry x="90" y="800" width="120" height="80" as="geometry" />
        </mxCell>
        <mxCell id="iDL0mzzt14MPATJzExOn-80" style="edgeStyle=orthogonalEdgeStyle;curved=1;rounded=0;orthogonalLoop=1;jettySize=auto;html=1;exitX=1;exitY=0.5;exitDx=0;exitDy=0;entryX=0.5;entryY=0;entryDx=0;entryDy=0;strokeWidth=1;" edge="1" parent="1" source="iDL0mzzt14MPATJzExOn-74" target="iDL0mzzt14MPATJzExOn-78">
          <mxGeometry relative="1" as="geometry" />
        </mxCell>
        <mxCell id="iDL0mzzt14MPATJzExOn-104" style="edgeStyle=orthogonalEdgeStyle;curved=1;rounded=0;orthogonalLoop=1;jettySize=auto;html=1;exitX=0;exitY=0.75;exitDx=0;exitDy=0;entryX=0.5;entryY=1;entryDx=0;entryDy=0;strokeWidth=1;" edge="1" parent="1" source="iDL0mzzt14MPATJzExOn-74" target="iDL0mzzt14MPATJzExOn-73">
          <mxGeometry relative="1" as="geometry" />
        </mxCell>
        <mxCell id="iDL0mzzt14MPATJzExOn-74" value="&lt;font face=&quot;comic sans ms&quot;&gt;&lt;span style=&quot;font-size: 16px&quot;&gt;&lt;b&gt;文件系统&lt;br&gt;File System&lt;br&gt;&lt;/b&gt;&lt;/span&gt;&lt;/font&gt;" style="rounded=0;whiteSpace=wrap;html=1;shadow=0;sketch=1;fillColor=#cce5ff;strokeColor=#36393d;" vertex="1" parent="1">
          <mxGeometry x="284" y="710" width="130" height="60" as="geometry" />
        </mxCell>
        <mxCell id="iDL0mzzt14MPATJzExOn-76" value="&lt;b style=&quot;color: rgb(0 , 0 , 0) ; font-family: &amp;#34;comic sans ms&amp;#34; ; font-size: 16px ; font-style: normal ; letter-spacing: normal ; text-align: center ; text-indent: 0px ; text-transform: none ; word-spacing: 0px ; background-color: rgb(248 , 249 , 250)&quot;&gt;读取TTY请求&lt;/b&gt;" style="text;whiteSpace=wrap;html=1;rounded=0;" vertex="1" parent="1">
          <mxGeometry x="160" y="710" width="100" height="30" as="geometry" />
        </mxCell>
        <mxCell id="iDL0mzzt14MPATJzExOn-91" style="edgeStyle=orthogonalEdgeStyle;curved=1;rounded=0;orthogonalLoop=1;jettySize=auto;html=1;exitX=0.5;exitY=1;exitDx=0;exitDy=0;entryX=1;entryY=1;entryDx=0;entryDy=0;strokeWidth=1;" edge="1" parent="1" source="iDL0mzzt14MPATJzExOn-78" target="iDL0mzzt14MPATJzExOn-74">
          <mxGeometry relative="1" as="geometry">
            <Array as="points">
              <mxPoint x="672" y="940" />
              <mxPoint x="490" y="940" />
              <mxPoint x="490" y="770" />
            </Array>
          </mxGeometry>
        </mxCell>
        <mxCell id="iDL0mzzt14MPATJzExOn-78" value="&lt;b style=&quot;font-family: &amp;#34;comic sans ms&amp;#34; ; font-size: 16px&quot;&gt;TTY&lt;/b&gt;" style="rhombus;whiteSpace=wrap;html=1;rounded=0;shadow=0;glass=0;sketch=1;strokeColor=#36393d;strokeWidth=1;fillColor=#cdeb8b;" vertex="1" parent="1">
          <mxGeometry x="605" y="830" width="134" height="90" as="geometry" />
        </mxCell>
        <mxCell id="iDL0mzzt14MPATJzExOn-81" value="&lt;b style=&quot;color: rgb(0 , 0 , 0) ; font-family: &amp;#34;comic sans ms&amp;#34; ; font-size: 16px ; font-style: normal ; letter-spacing: normal ; text-align: center ; text-indent: 0px ; text-transform: none ; word-spacing: 0px ; background-color: rgb(248 , 249 , 250)&quot;&gt;读取TTY请求&lt;/b&gt;" style="text;whiteSpace=wrap;html=1;rounded=0;" vertex="1" parent="1">
          <mxGeometry x="507.5" y="710" width="122.5" height="30" as="geometry" />
        </mxCell>
        <mxCell id="iDL0mzzt14MPATJzExOn-83" value="&lt;font face=&quot;comic sans ms&quot;&gt;&lt;span style=&quot;font-size: 16px&quot;&gt;&lt;b&gt;记录发送请求的进程号等信息&lt;br&gt;[PID pid(P)]，并即刻返回&lt;br&gt;&lt;/b&gt;&lt;/span&gt;&lt;/font&gt;" style="rounded=0;whiteSpace=wrap;html=1;shadow=0;sketch=1;fillColor=#f9f7ed;strokeColor=#36393d;" vertex="1" parent="1">
          <mxGeometry x="541" y="960" width="238" height="40" as="geometry" />
        </mxCell>
        <mxCell id="iDL0mzzt14MPATJzExOn-84" value="" style="rounded=0;whiteSpace=wrap;html=1;shadow=0;glass=0;dashed=1;sketch=0;strokeWidth=2;fillColor=none;gradientColor=none;strokeColor=#67AB9F;" vertex="1" parent="1">
          <mxGeometry x="516" y="813" width="290" height="200" as="geometry" />
        </mxCell>
        <mxCell id="iDL0mzzt14MPATJzExOn-93" value="&lt;b style=&quot;color: rgb(0 , 0 , 0) ; font-family: &amp;#34;comic sans ms&amp;#34; ; font-size: 16px ; font-style: normal ; letter-spacing: normal ; text-align: center ; text-indent: 0px ; text-transform: none ; word-spacing: 0px ; background-color: rgb(248 , 249 , 250)&quot;&gt;返回&lt;/b&gt;" style="text;whiteSpace=wrap;html=1;rounded=0;" vertex="1" parent="1">
          <mxGeometry x="563" y="908" width="60" height="40" as="geometry" />
        </mxCell>
        <mxCell id="iDL0mzzt14MPATJzExOn-100" value="&lt;b style=&quot;font-family: &amp;#34;comic sans ms&amp;#34;&quot;&gt;&lt;font style=&quot;font-size: 18px&quot;&gt;OK&lt;/font&gt;&lt;/b&gt;" style="ellipse;whiteSpace=wrap;html=1;aspect=fixed;rounded=0;shadow=0;glass=0;sketch=1;strokeColor=#36393d;strokeWidth=1;fillColor=#ffcc99;" vertex="1" parent="1">
          <mxGeometry x="447.5" y="800" width="60" height="60" as="geometry" />
        </mxCell>
        <mxCell id="iDL0mzzt14MPATJzExOn-106" value="&lt;b style=&quot;font-family: &amp;#34;comic sans ms&amp;#34;&quot;&gt;&lt;font style=&quot;font-size: 18px&quot;&gt;解除对P阻塞&lt;/font&gt;&lt;/b&gt;" style="shape=parallelogram;perimeter=parallelogramPerimeter;whiteSpace=wrap;html=1;fixedSize=1;rounded=0;shadow=0;glass=0;sketch=1;strokeColor=#36393d;strokeWidth=1;fillColor=#eeeeee;" vertex="1" parent="1">
          <mxGeometry x="220" y="800" width="120" height="50" as="geometry" />
        </mxCell>
        <mxCell id="iDL0mzzt14MPATJzExOn-107" value="&lt;div style=&quot;text-align: center&quot;&gt;&lt;span style=&quot;font-size: 28px&quot;&gt;&lt;font face=&quot;comic sans ms&quot;&gt;&lt;b&gt;读取TTY过程示意图&lt;/b&gt;&lt;/font&gt;&lt;/span&gt;&lt;/div&gt;" style="text;whiteSpace=wrap;html=1;" vertex="1" parent="1">
          <mxGeometry x="70" y="1020" width="270" height="30" as="geometry" />
        </mxCell>
        <mxCell id="iDL0mzzt14MPATJzExOn-109" value="" style="rounded=0;whiteSpace=wrap;html=1;shadow=0;glass=0;sketch=0;strokeWidth=3;fillColor=none;gradientColor=none;dashed=1;strokeColor=#007FFF;" vertex="1" parent="1">
          <mxGeometry x="32.5" y="230" width="877.5" height="400" as="geometry" />
        </mxCell>
        <mxCell id="iDL0mzzt14MPATJzExOn-110" style="edgeStyle=orthogonalEdgeStyle;curved=1;rounded=0;orthogonalLoop=1;jettySize=auto;html=1;exitX=0.5;exitY=0;exitDx=0;exitDy=0;entryX=0;entryY=0.5;entryDx=0;entryDy=0;strokeWidth=1;" edge="1" parent="1" source="iDL0mzzt14MPATJzExOn-111" target="iDL0mzzt14MPATJzExOn-114">
          <mxGeometry relative="1" as="geometry" />
        </mxCell>
        <mxCell id="iDL0mzzt14MPATJzExOn-111" value="&lt;b style=&quot;font-family: &amp;#34;comic sans ms&amp;#34; ; font-size: 16px&quot;&gt;进程 P&lt;/b&gt;" style="ellipse;whiteSpace=wrap;html=1;rounded=0;shadow=0;glass=0;sketch=1;strokeWidth=1;fillColor=#ffcccc;strokeColor=#36393d;" vertex="1" parent="1">
          <mxGeometry x="90" y="353" width="120" height="80" as="geometry" />
        </mxCell>
        <mxCell id="iDL0mzzt14MPATJzExOn-112" style="edgeStyle=orthogonalEdgeStyle;curved=1;rounded=0;orthogonalLoop=1;jettySize=auto;html=1;exitX=1;exitY=0.5;exitDx=0;exitDy=0;entryX=0.5;entryY=0;entryDx=0;entryDy=0;strokeWidth=1;" edge="1" parent="1" source="iDL0mzzt14MPATJzExOn-114" target="iDL0mzzt14MPATJzExOn-117">
          <mxGeometry relative="1" as="geometry" />
        </mxCell>
        <mxCell id="iDL0mzzt14MPATJzExOn-113" style="edgeStyle=orthogonalEdgeStyle;curved=1;rounded=0;orthogonalLoop=1;jettySize=auto;html=1;exitX=0;exitY=0.75;exitDx=0;exitDy=0;entryX=0.5;entryY=1;entryDx=0;entryDy=0;strokeWidth=1;" edge="1" parent="1" source="iDL0mzzt14MPATJzExOn-114" target="iDL0mzzt14MPATJzExOn-111">
          <mxGeometry relative="1" as="geometry" />
        </mxCell>
        <mxCell id="iDL0mzzt14MPATJzExOn-114" value="&lt;font face=&quot;comic sans ms&quot;&gt;&lt;span style=&quot;font-size: 16px&quot;&gt;&lt;b&gt;文件系统&lt;br&gt;File System&lt;br&gt;&lt;/b&gt;&lt;/span&gt;&lt;/font&gt;" style="rounded=0;whiteSpace=wrap;html=1;shadow=0;sketch=1;fillColor=#cce5ff;strokeColor=#36393d;" vertex="1" parent="1">
          <mxGeometry x="284" y="263" width="130" height="60" as="geometry" />
        </mxCell>
        <mxCell id="iDL0mzzt14MPATJzExOn-115" value="&lt;b style=&quot;color: rgb(0 , 0 , 0) ; font-family: &amp;#34;comic sans ms&amp;#34; ; font-size: 16px ; font-style: normal ; letter-spacing: normal ; text-align: center ; text-indent: 0px ; text-transform: none ; word-spacing: 0px ; background-color: rgb(248 , 249 , 250)&quot;&gt;写入TTY请求&lt;/b&gt;" style="text;whiteSpace=wrap;html=1;rounded=0;" vertex="1" parent="1">
          <mxGeometry x="160" y="263" width="100" height="30" as="geometry" />
        </mxCell>
        <mxCell id="iDL0mzzt14MPATJzExOn-126" style="edgeStyle=orthogonalEdgeStyle;curved=1;rounded=0;orthogonalLoop=1;jettySize=auto;html=1;exitX=1;exitY=0.5;exitDx=0;exitDy=0;entryX=0.5;entryY=0;entryDx=0;entryDy=0;strokeWidth=1;" edge="1" parent="1" source="iDL0mzzt14MPATJzExOn-117" target="iDL0mzzt14MPATJzExOn-125">
          <mxGeometry relative="1" as="geometry" />
        </mxCell>
        <mxCell id="iDL0mzzt14MPATJzExOn-117" value="&lt;b style=&quot;font-family: &amp;#34;comic sans ms&amp;#34; ; font-size: 16px&quot;&gt;TTY&lt;/b&gt;" style="rhombus;whiteSpace=wrap;html=1;rounded=0;shadow=0;glass=0;sketch=1;strokeColor=#36393d;strokeWidth=1;fillColor=#cdeb8b;" vertex="1" parent="1">
          <mxGeometry x="605" y="383" width="134" height="90" as="geometry" />
        </mxCell>
        <mxCell id="iDL0mzzt14MPATJzExOn-118" value="&lt;b style=&quot;color: rgb(0 , 0 , 0) ; font-family: &amp;#34;comic sans ms&amp;#34; ; font-size: 16px ; font-style: normal ; letter-spacing: normal ; text-align: center ; text-indent: 0px ; text-transform: none ; word-spacing: 0px ; background-color: rgb(248 , 249 , 250)&quot;&gt;写入TTY请求&lt;/b&gt;" style="text;whiteSpace=wrap;html=1;rounded=0;" vertex="1" parent="1">
          <mxGeometry x="507.5" y="263" width="122.5" height="30" as="geometry" />
        </mxCell>
        <mxCell id="iDL0mzzt14MPATJzExOn-120" value="" style="rounded=0;whiteSpace=wrap;html=1;shadow=0;glass=0;dashed=1;sketch=0;strokeWidth=2;fillColor=none;gradientColor=none;strokeColor=#67AB9F;" vertex="1" parent="1">
          <mxGeometry x="527" y="357" width="290" height="227" as="geometry" />
        </mxCell>
        <mxCell id="iDL0mzzt14MPATJzExOn-121" value="&lt;b style=&quot;color: rgb(0 , 0 , 0) ; font-family: &amp;#34;comic sans ms&amp;#34; ; font-size: 16px ; font-style: normal ; letter-spacing: normal ; text-align: center ; text-indent: 0px ; text-transform: none ; word-spacing: 0px ; background-color: rgb(248 , 249 , 250)&quot;&gt;返回&lt;/b&gt;" style="text;whiteSpace=wrap;html=1;rounded=0;" vertex="1" parent="1">
          <mxGeometry x="547" y="505" width="60" height="40" as="geometry" />
        </mxCell>
        <mxCell id="iDL0mzzt14MPATJzExOn-124" value="&lt;div style=&quot;text-align: center&quot;&gt;&lt;span style=&quot;font-size: 28px&quot;&gt;&lt;font face=&quot;comic sans ms&quot;&gt;&lt;b&gt;读取TTY过程示意图&lt;/b&gt;&lt;/font&gt;&lt;/span&gt;&lt;/div&gt;" style="text;whiteSpace=wrap;html=1;" vertex="1" parent="1">
          <mxGeometry x="70" y="573" width="270" height="30" as="geometry" />
        </mxCell>
        <mxCell id="iDL0mzzt14MPATJzExOn-128" style="edgeStyle=orthogonalEdgeStyle;curved=1;rounded=0;orthogonalLoop=1;jettySize=auto;html=1;exitX=0;exitY=0.5;exitDx=0;exitDy=0;entryX=1;entryY=0.75;entryDx=0;entryDy=0;strokeWidth=1;" edge="1" parent="1" source="iDL0mzzt14MPATJzExOn-125" target="iDL0mzzt14MPATJzExOn-114">
          <mxGeometry relative="1" as="geometry">
            <Array as="points">
              <mxPoint x="460" y="543" />
              <mxPoint x="460" y="308" />
            </Array>
          </mxGeometry>
        </mxCell>
        <mxCell id="iDL0mzzt14MPATJzExOn-125" value="&lt;b style=&quot;font-family: &amp;#34;comic sans ms&amp;#34; ; font-size: 16px&quot;&gt;显存&lt;/b&gt;" style="shape=process;whiteSpace=wrap;html=1;backgroundOutline=1;rounded=0;shadow=0;glass=0;sketch=1;strokeColor=#36393d;strokeWidth=1;fillColor=#ffff88;" vertex="1" parent="1">
          <mxGeometry x="619" y="513" width="120" height="60" as="geometry" />
        </mxCell>
        <mxCell id="iDL0mzzt14MPATJzExOn-127" value="&lt;b style=&quot;color: rgb(0, 0, 0); font-family: &amp;quot;comic sans ms&amp;quot;; font-size: 16px; font-style: normal; letter-spacing: normal; text-align: center; text-indent: 0px; text-transform: none; word-spacing: 0px; background-color: rgb(248, 249, 250);&quot;&gt;将字符写入&lt;/b&gt;" style="text;whiteSpace=wrap;html=1;" vertex="1" parent="1">
          <mxGeometry x="696" y="461" width="110" height="30" as="geometry" />
        </mxCell>
        <mxCell id="iDL0mzzt14MPATJzExOn-131" value="&lt;b style=&quot;font-family: &amp;#34;comic sans ms&amp;#34;&quot;&gt;&lt;font style=&quot;font-size: 18px&quot;&gt;OK&lt;/font&gt;&lt;/b&gt;" style="ellipse;whiteSpace=wrap;html=1;aspect=fixed;rounded=0;shadow=0;glass=0;sketch=1;strokeColor=#36393d;strokeWidth=1;fillColor=#ffcc99;" vertex="1" parent="1">
          <mxGeometry x="441.25" y="451" width="60" height="60" as="geometry" />
        </mxCell>
        <mxCell id="iDL0mzzt14MPATJzExOn-132" value="&lt;b style=&quot;color: rgb(0 , 0 , 0) ; font-family: &amp;#34;comic sans ms&amp;#34; ; font-size: 16px ; font-style: normal ; letter-spacing: normal ; text-align: center ; text-indent: 0px ; text-transform: none ; word-spacing: 0px ; background-color: rgb(248 , 249 , 250)&quot;&gt;返回&lt;/b&gt;" style="text;whiteSpace=wrap;html=1;rounded=0;" vertex="1" parent="1">
          <mxGeometry x="190" y="421" width="60" height="40" as="geometry" />
        </mxCell>
      </root>
    </mxGraphModel>
  </diagram>
</mxfile>
